HIERARCHY
ROOT Hips
{
	OFFSET -8.230994 107.569221 -0.381315
	CHANNELS 6 Xposition Yposition Zposition Xrotation Yrotation Zrotation
	JOINT Chest
	{
		OFFSET -0.084330 13.643433 0.061230
		CHANNELS 3 Xrotation Yrotation Zrotation
		JOINT Chest2
		{
			OFFSET -1.465308 20.980064 4.093420
			CHANNELS 3 Xrotation Yrotation Zrotation
			JOINT Chest3
			{
				OFFSET -0.897286 14.837189 1.368502
				CHANNELS 3 Xrotation Yrotation Zrotation
				JOINT Neck
				{
					OFFSET -0.446065 17.147263 2.094845
					CHANNELS 3 Xrotation Yrotation Zrotation
					JOINT Head
					{
						OFFSET -0.999531 10.181046 2.274821
						CHANNELS 3 Xrotation Yrotation Zrotation
						End Site
						{
							OFFSET -0.992831 10.197296 2.203879
						}
					}
				}
				JOINT LeftCollar
				{
					OFFSET 4.098634 12.965591 4.110819
					CHANNELS 3 Xrotation Yrotation Zrotation
					JOINT LeftUpArm
					{
						OFFSET 15.941536 -1.404205 -7.238447
						CHANNELS 3 Xrotation Yrotation Zrotation
						JOINT LeftLowArm
						{
							OFFSET 28.532085 -14.197495 11.139097
							CHANNELS 3 Xrotation Yrotation Zrotation
							JOINT LeftHand
							{
								OFFSET 9.959320 5.088684 27.854336
								CHANNELS 3 Xrotation Yrotation Zrotation
								End Site
								{
									OFFSET 2.176662 1.112198 6.087723
								}
							}
						}
					}
				}
				JOINT RightCollar
				{
					OFFSET -4.283508 12.662460 4.808584
					CHANNELS 3 Xrotation Yrotation Zrotation
					JOINT RightUpArm
					{
						OFFSET -15.896010 -4.907272 -5.633087
						CHANNELS 3 Xrotation Yrotation Zrotation
						JOINT RightLowArm
						{
							OFFSET -19.998260 -26.801865 4.632881
							CHANNELS 3 Xrotation Yrotation Zrotation
							JOINT RightHand
							{
								OFFSET -19.055496 -19.265617 12.910404
								CHANNELS 3 Xrotation Yrotation Zrotation
								End Site
								{
									OFFSET -4.164787 -4.210678 2.821693
								}
							}
						}
					}
				}
			}
		}
	}
	JOINT LeftUpLeg
	{
		OFFSET 10.020582 0.061470 0.057257
		CHANNELS 3 Xrotation Yrotation Zrotation
		JOINT LeftLowLeg
		{
			OFFSET 14.011996 -44.814365 6.271056
			CHANNELS 3 Xrotation Yrotation Zrotation
			JOINT LeftFoot
			{
				OFFSET 8.087433 -41.528252 -14.510897
				CHANNELS 3 Xrotation Yrotation Zrotation
				JOINT LeftToe
				{
					OFFSET 0.857546 -21.049156 10.759054
					CHANNELS 3 Xrotation Yrotation Zrotation
					End Site
					{
						OFFSET -1.089020 -9.537832 21.619499
					}
				}
			}
		}
	}
	JOINT RightUpLeg
	{
		OFFSET -10.020585 -0.061668 -0.057258
		CHANNELS 3 Xrotation Yrotation Zrotation
		JOINT RightLowLeg
		{
			OFFSET -9.548100 -45.915085 6.682090
			CHANNELS 3 Xrotation Yrotation Zrotation
			JOINT RightFoot
			{
				OFFSET -1.274153 -41.416191 -16.842058
				CHANNELS 3 Xrotation Yrotation Zrotation
				JOINT RightToe
				{
					OFFSET -4.828726 -21.659544 8.191710
					CHANNELS 3 Xrotation Yrotation Zrotation
					End Site
					{
						OFFSET -7.616405 -10.859426 19.586205
					}
				}
			}
		}
	}
}
MOTION
Frames: 13
Frame Time: 0.033333
-0.028982 105.783409 -1.111728 6.622652 -1.648296 -0.624976 -9.007285 -0.182332 -0.885791 -5.067950 0.932021 0.615270 6.753655 -1.610376 -1.695035 -4.319254 5.206444 -0.376694 0.000001 0.000000 -0.000001 3.707274 8.141779 -14.180986 18.205944 0.676134 -37.456307 38.722767 14.727124 -18.581130 0.000002 -0.000002 -0.000001 6.266725 -4.867096 7.503653 7.159867 12.346291 20.135637 0.636922 18.233207 9.978984 -0.000001 0.000004 -0.000000 7.062359 -1.804184 -13.037162 -18.060116 0.794169 3.733915 -15.371530 4.894001 1.176722 -0.000002 -0.000001 0.000000 0.889484 1.936915 9.250855 -12.325924 -1.709647 -7.437155 -13.296669 7.330645 4.020839 0.000002 0.000001 -0.000001 
-0.027590 105.786385 -1.111314 6.639386 -1.899750 -0.586213 -9.123416 -0.183948 -0.882240 -4.889850 1.060826 0.498275 6.764154 -1.370863 -1.586903 -4.595298 5.128533 -0.229692 0.000002 -0.000000 -0.000001 3.858800 7.567152 -14.521655 18.222199 0.749395 -37.300298 38.253086 14.823290 -18.193145 -0.000000 -0.000004 -0.000001 6.340441 -4.490777 7.561657 7.365353 12.176219 20.162609 0.659677 18.138155 9.764244 -0.000002 0.000002 0.000003 6.972625 -1.796131 -13.062090 -18.089073 0.797823 3.663815 -15.205275 5.279442 1.523928 0.000002 -0.000001 -0.000000 0.906363 1.916292 9.213083 -12.140846 -1.686388 -7.472580 -13.557782 7.556259 4.253261 0.000000 -0.000001 -0.000001 
-0.022066 105.790657 -1.122117 6.527327 -1.830170 -0.707230 -8.519107 -0.194602 -0.796042 -4.802141 0.982562 0.589381 6.372227 -1.627266 -1.730443 -4.747854 5.201578 -0.260501 0.000002 0.000000 -0.000000 3.795735 7.309402 -14.563630 18.242211 1.142322 -37.303317 37.842281 14.580388 -18.298254 -0.000003 0.000001 -0.000002 6.204680 -4.359920 7.595894 7.400194 11.872948 20.190659 0.325603 17.887786 10.277063 0.000002 0.000002 0.000004 6.676521 -1.857384 -12.934591 -17.683664 0.771445 3.619755 -15.483209 5.569349 1.667312 0.000000 -0.000000 -0.000001 0.652366 1.978864 9.310388 -11.546609 -1.648346 -7.375260 -13.220622 7.113683 3.958685 -0.000002 -0.000001 -0.000001 
-0.013560 105.792618 -1.125750 6.610973 -2.172680 -0.658384 -8.606155 -0.170384 -0.938173 -4.639899 1.042439 0.527298 6.280251 -1.445416 -1.554706 -4.528882 5.183040 -0.259340 0.000001 -0.000000 -0.000001 3.810856 7.376253 -14.370896 18.212334 0.913239 -37.386079 37.774655 14.468984 -17.961038 -0.000002 -0.000000 -0.000002 6.224138 -4.627320 7.579572 7.324206 12.038558 20.171748 0.077835 18.317673 10.308659 0.000000 -0.000003 -0.000002 6.856257 -1.852124 -13.016893 -17.786018 0.741216 3.635588 -15.279734 5.462737 1.614496 0.000002 -0.000001 0.000001 0.874536 1.972574 9.255067 -11.901308 -1.590191 -7.509498 -13.210506 7.766061 4.330391 -0.000000 0.000000 0.000000 
-0.000971 105.788773 -1.126435 7.046552 -2.073041 -0.763729 -9.077065 -0.187277 -0.815785 -4.980562 0.965760 0.609705 6.651509 -1.530553 -1.670177 -4.423140 5.163913 -0.220191 0.000000 -0.000001 -0.000001 3.857886 7.109625 -14.266638 18.093630 0.752849 -37.480154 37.973157 15.018993 -18.246557 -0.000002 -0.000000 0.000001 6.185193 -4.726364 7.498114 7.450735 11.939197 20.267745 0.122864 18.139210 10.483867 -0.000000 0.000002 0.000004 6.902305 -1.845935 -12.890036 -18.084884 0.663959 3.598764 -15.054961 5.247732 1.518866 -0.000002 -0.000000 0.000000 0.709866 2.008676 9.349560 -12.079167 -1.548390 -7.464942 -13.058093 7.568040 4.213055 0.000002 0.000002 -0.000000 
0.015072 105.787140 -1.122548 6.788407 -2.095659 -0.740193 -9.041576 -0.156306 -0.858371 -5.503815 0.948692 0.608708 7.144252 -1.534850 -1.620687 -4.057727 5.182443 -0.324517 0.000001 0.000000 -0.000001 3.782917 7.169574 -14.469624 18.062818 0.894560 -37.357180 38.054761 15.011617 -18.363423 -0.000000 0.000005 -0.000001 6.222512 -4.307631 7.667632 7.601562 11.609206 20.107945 0.216832 18.112854 10.500318 -0.000003 -0.000001 0.000003 7.264517 -1.799233 -13.007014 -18.301828 0.697056 3.675785 -15.011974 5.426416 1.639924 -0.000002 -0.000001 0.000000 1.038218 1.950747 9.250830 -12.125502 -1.553612 -7.415880 -13.408278 7.750872 4.431816 -0.000001 0.000002 0.000000 
0.036242 105.788879 -1.122020 6.312820 -2.037209 -0.792413 -8.537935 -0.191072 -0.736127 -5.287219 0.888483 0.686757 6.765915 -1.704520 -1.813238 -3.968213 5.167695 -0.294251 0.000002 -0.000000 -0.000001 3.783533 7.212512 -14.650191 18.227326 1.098555 -37.227372 37.695333 14.969932 -18.155840 0.000003 0.000005 0.000000 6.254178 -3.811613 7.664162 7.346523 11.881965 20.160702 0.458324 17.726494 10.294155 -0.000002 0.000001 -0.000003 7.442595 -1.845697 -13.040239 -17.750173 0.738393 3.734800 -15.683511 5.425686 1.462627 -0.000003 0.000000 -0.000001 1.391427 1.949656 9.230745 -11.809147 -1.582366 -7.366241 -14.162842 7.581033 4.477993 -0.000000 0.000000 0.000000 
0.056999 105.794350 -1.127312 6.120599 -1.833042 -0.795183 -8.334893 -0.189316 -0.692187 -4.916546 0.865986 0.689998 6.344230 -1.770574 -1.899058 -4.063099 5.059364 -0.283182 0.000001 0.000000 -0.000001 3.706698 7.045773 -14.808106 18.004047 1.163667 -37.099286 37.982730 15.376938 -18.691335 -0.000001 -0.000002 -0.000003 6.100778 -3.976169 7.683455 7.395888 11.553506 20.184150 0.502668 17.494560 10.592974 -0.000003 0.000000 0.000001 7.657915 -1.833886 -13.065942 -17.959221 0.737537 3.718157 -15.498241 5.299212 1.416144 -0.000002 -0.000001 -0.000000 1.428862 1.934039 9.163630 -11.778484 -1.628279 -7.327894 -14.161221 7.516108 4.398869 -0.000002 -0.000001 -0.000000 
0.077673 105.794411 -1.132552 6.076462 -1.941250 -0.828164 -8.446118 -0.212187 -0.612328 -5.288782 0.773801 0.784461 6.666923 -1.625616 -2.033472 -3.913207 4.949032 -0.221328 0.000001 0.000001 -0.000000 3.698401 7.069686 -14.816823 17.759673 1.057703 -37.015104 38.232991 15.636048 -19.131722 0.000002 -0.000000 -0.000002 6.006143 -4.422469 7.763003 6.811184 11.935564 20.238515 1.060148 16.812169 10.828508 -0.000001 0.000003 -0.000001 7.715873 -1.822334 -13.064879 -18.142789 0.634106 3.717412 -15.178668 5.349106 1.576369 0.000002 -0.000000 -0.000001 1.436889 1.921365 9.167675 -11.877357 -1.655684 -7.315599 -14.035293 7.593940 4.370406 -0.000000 -0.000001 0.000000 
0.102590 105.793945 -1.136492 5.918053 -2.233242 -0.835734 -8.311742 -0.216162 -0.574940 -4.829322 0.827149 0.739655 6.190626 -1.490443 -1.944824 -3.553421 5.050375 -0.299576 0.000001 -0.000000 -0.000001 3.691084 6.890969 -14.568898 17.729964 0.961134 -37.266035 38.009743 15.506456 -18.944698 -0.000002 -0.000002 -0.000001 6.006782 -4.188568 7.703784 6.837026 11.873691 20.245302 1.245599 16.594614 10.769523 -0.000002 -0.000003 -0.000002 7.991925 -1.819068 -13.110599 -18.394360 0.594324 3.684143 -15.002919 5.726923 1.926843 0.000000 -0.000001 0.000001 1.689339 1.911275 9.142277 -11.906804 -1.616270 -7.358150 -13.750886 7.730482 4.416861 -0.000002 0.000000 0.000001 
0.124922 105.791924 -1.137066 6.248743 -2.334035 -0.802078 -8.768771 -0.213792 -0.600466 -4.770808 0.924993 0.653637 6.249577 -1.523210 -1.812742 -3.301345 5.097377 -0.288124 0.000002 0.000000 -0.000001 3.702995 7.411050 -14.355536 18.143096 1.229832 -37.313515 38.163416 14.777575 -18.874970 -0.000001 0.000004 -0.000006 6.083668 -4.416091 7.491905 7.144875 11.909489 20.258304 1.296040 16.844980 10.865940 -0.000002 -0.000002 -0.000001 7.489433 -1.841473 -13.126340 -18.201520 0.564361 3.633843 -15.245947 5.708762 1.831656 -0.000002 -0.000000 -0.000000 1.241727 1.944302 9.151868 -11.710988 -1.553295 -7.461910 -13.606591 7.760647 4.435158 -0.000000 0.000000 -0.000000 
0.152245 105.789734 -1.137218 6.233434 -2.085709 -0.884476 -8.478495 -0.238465 -0.476541 -5.966586 0.803878 0.764167 7.117754 -1.592929 -1.925440 -2.713199 5.108004 -0.277604 0.000002 -0.000000 -0.000000 3.642007 7.553394 -14.209329 18.075175 1.150853 -37.419649 38.459091 14.799051 -19.169095 -0.000001 0.000005 -0.000001 6.041555 -4.452411 7.429637 7.401161 11.590333 20.225496 1.036983 16.958111 10.847365 -0.000004 0.000002 0.000004 7.468240 -1.824433 -13.080520 -18.129118 0.569870 3.709920 -15.027031 5.476113 1.739740 0.000002 0.000000 -0.000002 1.139909 1.921954 9.156741 -11.796480 -1.591310 -7.362877 -13.699397 7.622129 4.378441 -0.000004 0.000001 -0.000001 
0.176349 105.790993 -1.137785 5.812145 -2.105706 -0.932044 -8.053987 -0.233827 -0.497123 -6.176144 0.738594 0.830082 7.221474 -1.578535 -1.944075 -3.118013 5.036596 -0.197043 0.000002 0.000000 -0.000001 3.640446 7.545965 -14.161181 18.279690 1.317678 -37.474711 38.333627 14.681999 -19.012187 -0.000001 0.000003 -0.000000 6.062945 -4.536853 7.458748 7.382585 11.688000 20.265858 1.105791 16.923303 10.437922 -0.000002 -0.000003 -0.000000 7.766217 -1.827421 -13.047715 -17.777635 0.581114 3.653709 -15.200777 5.594808 1.728791 -0.000001 -0.000001 -0.000000 1.249425 1.950392 9.173018 -11.139791 -1.526904 -7.358759 -13.954058 7.708324 4.549053 0.000002 -0.000001 0.000002 
